<?xml version="1.0" standalone="no"?>
<!DOCTYPE svg PUBLIC "-//W3C//DTD SVG 20010904//EN"
 "http://www.w3.org/TR/2001/REC-SVG-20010904/DTD/svg10.dtd">
<svg version="1.0" xmlns="http://www.w3.org/2000/svg"
 width="829.000000pt" height="829.000000pt" viewBox="0 0 829.000000 829.000000"
 preserveAspectRatio="xMidYMid meet">
<metadata>
Created by potrace 1.14, written by Peter Selinger 2001-2017
</metadata>
<g transform="translate(0.000000,829.000000) scale(0.100000,-0.100000)"
fill="#000000" stroke="none">
<path d="M4026 8283 c-1 -1 -38 -5 -82 -8 -88 -7 -96 -8 -174 -20 -59 -9 -69
-11 -72 -15 -2 -1 -16 -4 -33 -6 -105 -17 -345 -97 -490 -165 -107 -50 -309
-165 -360 -206 -5 -4 -30 -21 -55 -38 -56 -38 -55 -37 -170 -133 -108 -90
-234 -213 -330 -321 -36 -41 -73 -82 -82 -92 -10 -11 -18 -21 -18 -24 0 -3 -9
-16 -21 -28 -11 -12 -48 -60 -82 -107 -34 -47 -65 -89 -70 -95 -16 -20 -135
-212 -170 -275 -74 -131 -196 -389 -250 -525 -56 -144 -69 -178 -68 -182 0 -2
-12 -40 -28 -85 -28 -84 -50 -157 -51 -171 0 -4 -6 -22 -14 -41 -8 -19 -12
-37 -9 -39 2 -3 -2 -18 -11 -35 -8 -16 -13 -31 -11 -34 3 -2 0 -21 -6 -42 -11
-39 -12 -45 -29 -126 -5 -25 -12 -56 -15 -70 -3 -14 -7 -38 -9 -55 -2 -16 -9
-57 -15 -90 -6 -33 -13 -73 -15 -90 -3 -16 -5 -30 -6 -30 0 0 -3 -22 -5 -50
-3 -27 -7 -68 -9 -90 -10 -84 -27 -286 -26 -315 0 -8 0 -31 -1 -50 -6 -154 4
-557 15 -615 4 -23 19 -179 20 -212 1 -13 5 -23 9 -23 5 0 6 -4 3 -9 -3 -5 1
-47 8 -92 8 -46 17 -97 20 -114 2 -16 12 -66 21 -110 9 -44 18 -91 21 -104 3
-14 8 -29 11 -34 3 -5 -3 -7 -13 -4 -11 3 -37 8 -59 12 -80 14 -91 16 -130 27
-22 6 -44 11 -50 13 -32 7 -84 37 -108 62 -32 34 -46 76 -53 153 -4 45 -9 87
-13 97 -3 7 -130 -61 -161 -86 -77 -62 -148 -253 -136 -366 12 -109 25 -142
81 -204 29 -32 88 -66 149 -85 15 -5 16 -9 6 -22 -17 -20 -18 -91 -2 -129 7
-16 27 -40 46 -53 22 -15 37 -36 45 -65 7 -23 19 -55 26 -72 8 -16 35 -82 61
-145 25 -63 52 -126 60 -140 7 -14 40 -83 74 -153 33 -71 87 -175 120 -232 33
-57 60 -109 60 -114 0 -6 5 -11 10 -11 6 0 10 -5 10 -10 0 -14 176 -280 246
-372 33 -42 66 -86 74 -99 58 -87 378 -426 484 -514 51 -42 85 -72 128 -111
20 -19 39 -34 43 -34 5 0 112 -76 125 -90 10 -10 126 -87 174 -116 28 -16 66
-39 85 -51 162 -98 518 -250 706 -299 99 -26 292 -67 330 -69 28 -2 50 -4 50
-5 0 -2 11 -3 105 -15 80 -10 431 -11 520 -2 61 7 191 24 235 32 123 21 477
121 510 144 6 4 44 20 85 36 101 40 283 133 392 201 309 193 569 421 815 714
105 126 303 399 303 419 0 6 4 11 9 11 5 0 11 8 14 18 6 18 38 73 48 82 17 15
202 374 242 470 8 19 24 56 36 82 25 55 43 99 47 113 2 6 22 60 44 120 23 61
43 115 44 120 2 6 6 17 9 25 19 45 33 97 30 108 -3 6 1 12 8 12 17 0 68 59 75
87 7 25 1 78 -10 105 -6 14 -1 20 20 29 146 55 215 152 216 304 1 111 -50 254
-118 329 -25 28 -174 109 -183 100 -3 -2 -6 -21 -7 -42 -13 -222 -42 -249
-311 -303 -57 -11 -107 -18 -111 -15 -5 3 0 37 9 77 10 39 20 86 22 103 2 17
7 37 11 44 4 7 5 12 3 12 -3 0 -1 17 4 38 5 20 11 62 14 92 4 30 8 62 10 70 2
8 7 35 9 60 15 124 18 148 21 185 23 242 23 705 0 905 -2 19 -7 65 -10 101 -3
36 -8 77 -10 90 -3 13 -8 44 -11 69 -5 41 -35 214 -49 285 -4 17 -8 39 -10 50
-4 31 -74 304 -92 360 -82 266 -181 512 -293 730 -80 156 -179 328 -192 333
-5 2 -8 8 -8 13 0 9 -20 39 -115 174 -37 52 -76 104 -90 119 -6 6 -30 36 -55
66 -90 110 -268 293 -360 370 -23 19 -47 40 -54 46 -40 36 -229 174 -288 209
-164 97 -218 126 -348 182 -52 22 -124 51 -160 63 -36 12 -72 24 -80 27 -8 3
-21 7 -29 9 -12 2 -30 7 -71 19 -13 4 -126 29 -135 30 -5 0 -26 4 -45 8 -54
10 -107 17 -189 23 -79 7 -280 11 -285 7z"/>
</g>
</svg>
